<mxfile host="app.diagrams.net" modified="2024-08-18T18:23:20.653Z" agent="Mozilla/5.0 (Macintosh; Intel Mac OS X 10_15_7) AppleWebKit/537.36 (KHTML, like Gecko) Chrome/127.0.0.0 Safari/537.36" etag="tcGNqeoJXn22B2REhF2b" version="24.6.5" type="github">
  <diagram name="Page-1" id="cQXEpiZOOyFrIhIgH8h6">
    <mxGraphModel dx="523" dy="413" grid="0" gridSize="10" guides="1" tooltips="1" connect="1" arrows="1" fold="1" page="0" pageScale="1" pageWidth="827" pageHeight="1169" math="0" shadow="0">
      <root>
        <mxCell id="0" />
        <mxCell id="1" parent="0" />
        <mxCell id="9QcrZcn8OBG2E4DoKpci-3" style="edgeStyle=orthogonalEdgeStyle;rounded=0;hachureGap=4;orthogonalLoop=1;jettySize=auto;html=1;fontFamily=Architects Daughter;fontSource=https%3A%2F%2Ffonts.googleapis.com%2Fcss%3Ffamily%3DArchitects%2BDaughter;curved=1;entryX=0.015;entryY=0.515;entryDx=0;entryDy=0;entryPerimeter=0;" edge="1" parent="1" source="9QcrZcn8OBG2E4DoKpci-2" target="9QcrZcn8OBG2E4DoKpci-5">
          <mxGeometry relative="1" as="geometry">
            <mxPoint x="311" y="158" as="targetPoint" />
          </mxGeometry>
        </mxCell>
        <mxCell id="9QcrZcn8OBG2E4DoKpci-2" value="toolbox" style="text;html=1;align=center;verticalAlign=middle;whiteSpace=wrap;rounded=0;" vertex="1" parent="1">
          <mxGeometry x="110" y="210" width="60" height="30" as="geometry" />
        </mxCell>
        <mxCell id="9QcrZcn8OBG2E4DoKpci-6" style="edgeStyle=orthogonalEdgeStyle;rounded=0;orthogonalLoop=1;jettySize=auto;html=1;fontFamily=Helvetica;fontSize=12;fontColor=default;entryX=0.001;entryY=0.502;entryDx=0;entryDy=0;entryPerimeter=0;" edge="1" parent="1" source="9QcrZcn8OBG2E4DoKpci-5" target="9QcrZcn8OBG2E4DoKpci-7">
          <mxGeometry relative="1" as="geometry">
            <mxPoint x="455.66666666666663" y="166" as="targetPoint" />
          </mxGeometry>
        </mxCell>
        <mxCell id="9QcrZcn8OBG2E4DoKpci-5" value="nodejs" style="text;html=1;align=center;verticalAlign=middle;resizable=0;points=[];autosize=1;strokeColor=none;fillColor=none;fontFamily=Helvetica;fontSize=12;fontColor=default;" vertex="1" parent="1">
          <mxGeometry x="327" y="153" width="53" height="26" as="geometry" />
        </mxCell>
        <mxCell id="9QcrZcn8OBG2E4DoKpci-7" value="bump-version" style="text;html=1;align=center;verticalAlign=middle;resizable=0;points=[];autosize=1;strokeColor=none;fillColor=none;fontFamily=Helvetica;fontSize=12;fontColor=default;" vertex="1" parent="1">
          <mxGeometry x="458" y="153" width="91" height="26" as="geometry" />
        </mxCell>
      </root>
    </mxGraphModel>
  </diagram>
</mxfile>
